<svg width="64" height="64" viewBox="0 0 64 64" fill="none" xmlns="http://www.w3.org/2000/svg">
  <!-- Background Circle/Shape (Subtle like Odoo icons) -->
  <rect x="4" y="4" width="56" height="56" rx="12" fill="#EBF3FF"/>
  
  <!-- Document Base -->
  <path d="M18 12H38L46 20V52C46 54.2091 44.2091 56 42 56H18C15.7909 56 14 54.2091 14 52V16C14 13.7909 15.7909 12 18 12Z" fill="white" stroke="#337AB7" stroke-width="2.5" stroke-linejoin="round"/>
  
  <!-- Document Fold -->
  <path d="M38 12V20H46" stroke="#337AB7" stroke-width="2.5" stroke-linecap="round" stroke-linejoin="round"/>
  
  <!-- Lines representing text -->
  <path d="M20 28H34" stroke="#D1D5DB" stroke-width="2" stroke-linecap="round"/>
  <path d="M20 34H40" stroke="#D1D5DB" stroke-width="2" stroke-linecap="round"/>
  <path d="M20 40H40" stroke="#D1D5DB" stroke-width="2" stroke-linecap="round"/>
  
  <!-- Currency Symbol ($) for 'Price Quote' -->
  <circle cx="42" cy="42" r="10" fill="#337AB7"/>
  <path d="M42 36V48M39 39H43.5C44.3284 39 45 39.6716 45 40.5C45 41.3284 44.3284 42 43.5 42H40.5C39.6716 42 39 42.6716 39 43.5C39 44.3284 39.6716 45 40.5 45H45" stroke="white" stroke-width="2" stroke-linecap="round" stroke-linejoin="round"/>
</svg>
