<svg width="64" height="64" viewBox="0 0 64 64" fill="none" xmlns="http://www.w3.org/2000/svg">
  <!-- Background Shape (Same as original) -->
  <rect x="4" y="4" width="56" height="56" rx="12" fill="#EBF3FF"/>
  
  <!-- Main Vehicle Body (White fill, blue stroke) -->
  <path d="M14 44H50C52.2091 44 54 42.2091 54 40V32C54 29.7909 52.2091 28 50 28H46L40 16H24L18 28H14C11.7909 28 10 29.7909 10 32V40C10 42.2091 11.7909 44 14 44Z" fill="white" stroke="#337AB7" stroke-width="2.5" stroke-linejoin="round"/>
  
  <!-- Windows (Gray lines/fill) -->
  <path d="M25 19H39L43 28H21L25 19Z" fill="#D1D5DB" stroke="#337AB7" stroke-width="1.5" stroke-linejoin="round"/>
  
  <!-- Wheels (Blue with white stroke) -->
  <circle cx="18" cy="44" r="6" fill="#337AB7" stroke="white" stroke-width="2.5"/>
  <circle cx="46" cy="44" r="6" fill="#337AB7" stroke="white" stroke-width="2.5"/>
  
  <!-- Circular Badge (Same as original) -->
  <circle cx="46" cy="18" r="10" fill="#337AB7"/>
  <!-- Steering Wheel / Icon in badge -->
  <circle cx="46" cy="18" r="5" stroke="white" stroke-width="1.5"/>
  <path d="M46 13V23M41 18H51" stroke="white" stroke-width="1.5" stroke-linecap="round"/>
</svg>
