<svg xmlns="http://www.w3.org/2000/svg" viewBox="0 0 600 300"><path d="M505.8,247.5a3.54,3.54,0,0,1-3.5,3.5H272.9a3.54,3.54,0,0,1-3.5-3.5V199.2a3.54,3.54,0,0,1,3.5-3.5H502.4a3.54,3.54,0,0,1,3.5,3.5l-.1,48.3Z" style="fill:#5b899e"/><path d="M305.1,214.6a1.38,1.38,0,0,1-.3.4c-.1.1-.2.1-.4.1a.86.86,0,0,1-.6-.3,7,7,0,0,0-.9-.6,9.75,9.75,0,0,0-1.4-.6,5.41,5.41,0,0,0-1.9-.3,5.82,5.82,0,0,0-1.9.3,6.38,6.38,0,0,0-1.4.8,2.55,2.55,0,0,0-.8,1.2,3.19,3.19,0,0,0-.3,1.4,2.54,2.54,0,0,0,.5,1.6,3.61,3.61,0,0,0,1.3,1.1,7.5,7.5,0,0,0,1.8.8c.7.2,1.4.5,2.1.7a18,18,0,0,1,2.1.8,7.84,7.84,0,0,1,1.8,1.1,5.5,5.5,0,0,1,1.3,1.7,6.18,6.18,0,0,1,.5,2.5,9.29,9.29,0,0,1-.5,2.9,9.74,9.74,0,0,1-1.5,2.4,6.35,6.35,0,0,1-2.5,1.6,8.81,8.81,0,0,1-3.3.6,11.62,11.62,0,0,1-4.2-.8,12.12,12.12,0,0,1-3.2-2.2l.9-1.5.3-.3a.6.6,0,0,1,.4-.1,1.2,1.2,0,0,1,.8.4c.3.2.7.5,1.1.8a6,6,0,0,0,1.6.8,7.31,7.31,0,0,0,2.3.4,6,6,0,0,0,2-.3,3.77,3.77,0,0,0,1.5-.9,3.39,3.39,0,0,0,.9-1.4,4.84,4.84,0,0,0,.3-1.8,3,3,0,0,0-1.8-2.8,7.5,7.5,0,0,0-1.8-.8,17.23,17.23,0,0,1-2.1-.7,18,18,0,0,1-2.1-.8,7.84,7.84,0,0,1-1.8-1.1,8.32,8.32,0,0,1-1.3-1.8,6.69,6.69,0,0,1-.5-2.6,6.87,6.87,0,0,1,.5-2.4,6,6,0,0,1,3.7-3.5,7.49,7.49,0,0,1,3.1-.5,10.46,10.46,0,0,1,3.6.6,7.5,7.5,0,0,1,2.8,1.8Z" style="fill:#fff"/><path d="M313.8,212.6a2.35,2.35,0,0,1-.2.8,3,3,0,0,1-.5.7,1.61,1.61,0,0,1-.7.4,1.7,1.7,0,0,1-1.6,0c-.2-.1-.5-.3-.7-.4a4.23,4.23,0,0,1-.5-.7,1.7,1.7,0,0,1,0-1.6,1.79,1.79,0,0,1,.5-.7,1.61,1.61,0,0,1,.7-.4,1.7,1.7,0,0,1,1.6,0c.2.1.5.3.7.4a4.23,4.23,0,0,1,.5.7A1.08,1.08,0,0,1,313.8,212.6Zm-.6,5.2v16.6h-2.9V217.8Z" style="fill:#fff"/><path d="M321.6,210.3v24.1h-2.9V210.3Z" style="fill:#fff"/><path d="M324.6,217.8H327a1.42,1.42,0,0,1,.6.2.54.54,0,0,1,.3.4l4.2,10.7a5.64,5.64,0,0,1,.4,1.2,5,5,0,0,1,.2,1.2l.3-1.2a5.64,5.64,0,0,1,.4-1.2l4.3-10.7a1.38,1.38,0,0,1,.3-.4.76.76,0,0,1,.5-.2h2.3L334,234.4h-2.6Z" style="fill:#fff"/><path d="M349.6,217.5a8.68,8.68,0,0,1,2.8.5,6.36,6.36,0,0,1,2.2,1.4,5.94,5.94,0,0,1,1.4,2.3,10.23,10.23,0,0,1,.5,3.2c0,.5,0,.8-.1.9a.85.85,0,0,1-.6.2h-11a10.26,10.26,0,0,0,.4,2.7,5,5,0,0,0,1.1,1.9,6.1,6.1,0,0,0,1.6,1.2,4.64,4.64,0,0,0,2.1.4,5.41,5.41,0,0,0,1.9-.3,12.13,12.13,0,0,1,1.4-.5,9.25,9.25,0,0,1,1-.5,1.33,1.33,0,0,1,.7-.3.86.86,0,0,1,.6.3l.8,1.1a6.89,6.89,0,0,1-1.3,1.1,8,8,0,0,1-1.6.8,12.09,12.09,0,0,1-1.8.5,11,11,0,0,1-1.8.2,8.66,8.66,0,0,1-3.2-.6,7.39,7.39,0,0,1-2.5-1.7,6.45,6.45,0,0,1-1.6-2.8,11.22,11.22,0,0,1-.6-3.8,10.73,10.73,0,0,1,.5-3.2,9.34,9.34,0,0,1,1.5-2.6,8.07,8.07,0,0,1,2.4-1.7A7.93,7.93,0,0,1,349.6,217.5Zm.1,2.2a4.46,4.46,0,0,0-3.3,1.2,5.66,5.66,0,0,0-1.5,3.4h9a5.82,5.82,0,0,0-.3-1.9,5.3,5.3,0,0,0-.8-1.5,6.42,6.42,0,0,0-1.3-1A9,9,0,0,0,349.7,219.7Z" style="fill:#fff"/><path d="M360.2,234.4V217.8h1.7a1.45,1.45,0,0,1,.7.2.85.85,0,0,1,.2.6l.2,2.6a7.47,7.47,0,0,1,2.1-2.7,4.84,4.84,0,0,1,2.9-1,3.73,3.73,0,0,1,1.2.2,4.18,4.18,0,0,1,1,.4l-.4,2.2c-.1.3-.2.4-.5.4a4.08,4.08,0,0,1-.7-.2,4.44,4.44,0,0,0-1.3-.2,3.49,3.49,0,0,0-2.5.9,5.62,5.62,0,0,0-1.7,2.6v10.6Z" style="fill:#fff"/><path d="M383.7,225.6v8.8h-3.2V210.9h6.9a14.79,14.79,0,0,1,3.9.5,5.94,5.94,0,0,1,2.7,1.5,5.33,5.33,0,0,1,1.6,2.3,8.46,8.46,0,0,1-.1,6,5.55,5.55,0,0,1-1.7,2.3,6.51,6.51,0,0,1-2.7,1.5,11,11,0,0,1-3.8.5l-3.6.1Zm0-2.5h3.8a6.05,6.05,0,0,0,2.4-.4,4,4,0,0,0,1.7-1,4.18,4.18,0,0,0,1.1-1.5,6.47,6.47,0,0,0,.4-2,4.51,4.51,0,0,0-1.4-3.5,6.19,6.19,0,0,0-4.2-1.3h-3.8v9.7Z" style="fill:#fff"/><path d="M411.1,234.4h-1.3a1.48,1.48,0,0,1-.7-.1.6.6,0,0,1-.3-.6l-.3-1.5c-.4.4-.9.7-1.3,1.1a9.13,9.13,0,0,1-1.3.8,5.27,5.27,0,0,1-1.5.5,8.81,8.81,0,0,1-1.7.2,5.66,5.66,0,0,1-1.8-.3,5.3,5.3,0,0,1-1.5-.8,5,5,0,0,1-1-1.4,5.92,5.92,0,0,1-.4-2,4.14,4.14,0,0,1,.5-1.9,5.27,5.27,0,0,1,1.7-1.6,10.72,10.72,0,0,1,3.2-1.2,21.43,21.43,0,0,1,4.8-.5v-1.3a4.56,4.56,0,0,0-.8-2.9,3,3,0,0,0-2.4-1,4.84,4.84,0,0,0-1.8.3c-.5.2-.9.4-1.3.6a3.49,3.49,0,0,0-.9.6,1.33,1.33,0,0,1-.8.3.76.76,0,0,1-.5-.2c-.1-.1-.3-.2-.4-.4l-.5-.9a9.24,9.24,0,0,1,6.5-2.7,6.55,6.55,0,0,1,2.5.5,4.63,4.63,0,0,1,1.8,1.3,4.33,4.33,0,0,1,1.1,2,7.1,7.1,0,0,1,.4,2.6v10.5Zm-7.5-1.8a5.9,5.9,0,0,0,1.4-.2c.4-.1.8-.3,1.2-.4a6.73,6.73,0,0,0,1.1-.7c.3-.3.7-.6,1-.9V227a16.5,16.5,0,0,0-3.4.3,10.49,10.49,0,0,0-2.3.7,3.45,3.45,0,0,0-1.3,1,2,2,0,0,0-.4,1.3,3.59,3.59,0,0,0,.2,1.1,1.56,1.56,0,0,0,.6.8,1.27,1.27,0,0,0,.9.4Z" style="fill:#fff"/><path d="M415.5,234.4V217.8h1.7a1.45,1.45,0,0,1,.7.2.85.85,0,0,1,.2.6l.2,2.6a7.47,7.47,0,0,1,2.1-2.7,4.84,4.84,0,0,1,2.9-1,3.73,3.73,0,0,1,1.2.2,4.18,4.18,0,0,1,1,.4l-.4,2.2c-.1.3-.2.4-.5.4a2.54,2.54,0,0,1-.7-.2,4.44,4.44,0,0,0-1.3-.2,3.49,3.49,0,0,0-2.5.9,5.62,5.62,0,0,0-1.7,2.6v10.6Z" style="fill:#fff"/><path d="M433.8,234.7a4.08,4.08,0,0,1-3-1.1,4.42,4.42,0,0,1-1.1-3.2V220.2h-2a.52.52,0,0,1-.4-.2.76.76,0,0,1-.2-.5v-1.2l2.7-.3.7-5.1a.52.52,0,0,1,.2-.4.76.76,0,0,1,.5-.2h1.5V218h4.8v2.1h-4.8v10a2.54,2.54,0,0,0,.5,1.6,1.9,1.9,0,0,0,1.3.5,2,2,0,0,0,.8-.1l.6-.3a1.38,1.38,0,0,0,.4-.3.37.37,0,0,1,.3-.1.54.54,0,0,1,.4.3l.9,1.4a5.44,5.44,0,0,1-1.8,1.1A6.82,6.82,0,0,1,433.8,234.7Z" style="fill:#fff"/><path d="M441,234.4V217.8h1.7a.76.76,0,0,1,.8.6l.2,1.8a8.76,8.76,0,0,1,2.4-1.9,6.17,6.17,0,0,1,3.1-.7,6.05,6.05,0,0,1,2.4.4,3.71,3.71,0,0,1,1.7,1.3,6.44,6.44,0,0,1,1.1,2,10.13,10.13,0,0,1,.4,2.6v10.6h-2.9V223.9a4.2,4.2,0,0,0-.9-2.9,3.12,3.12,0,0,0-2.6-1,4.75,4.75,0,0,0-2.4.6,10.45,10.45,0,0,0-2.1,1.7v12.2l-2.9-.1Z" style="fill:#fff"/><path d="M465.7,217.5a8.68,8.68,0,0,1,2.8.5,6.36,6.36,0,0,1,2.2,1.4,5.94,5.94,0,0,1,1.4,2.3,10.23,10.23,0,0,1,.5,3.2,5.53,5.53,0,0,1-.1.9.85.85,0,0,1-.6.2h-11a10.26,10.26,0,0,0,.4,2.7,4.53,4.53,0,0,0,1.1,1.9,6.1,6.1,0,0,0,1.6,1.2,4.64,4.64,0,0,0,2.1.4,5.41,5.41,0,0,0,1.9-.3,12.13,12.13,0,0,1,1.4-.5,9.25,9.25,0,0,1,1-.5,1.33,1.33,0,0,1,.7-.3.86.86,0,0,1,.6.3l.8,1.1a6.89,6.89,0,0,1-1.3,1.1,8,8,0,0,1-1.6.8,12.09,12.09,0,0,1-1.8.5,11,11,0,0,1-1.8.2,8.66,8.66,0,0,1-3.2-.6,7.39,7.39,0,0,1-2.5-1.7,6.45,6.45,0,0,1-1.6-2.8,11.22,11.22,0,0,1-.6-3.8,10.73,10.73,0,0,1,.5-3.2,9.34,9.34,0,0,1,1.5-2.6,8.07,8.07,0,0,1,2.4-1.7A6.83,6.83,0,0,1,465.7,217.5Zm.1,2.2a4.46,4.46,0,0,0-3.3,1.2,5.66,5.66,0,0,0-1.5,3.4h9a5.82,5.82,0,0,0-.3-1.9,5.3,5.3,0,0,0-.8-1.5,6.42,6.42,0,0,0-1.3-1A9,9,0,0,0,465.8,219.7Z" style="fill:#fff"/><path d="M476.3,234.4V217.8H478a1.45,1.45,0,0,1,.7.2.85.85,0,0,1,.2.6l.2,2.6a7.47,7.47,0,0,1,2.1-2.7,4.84,4.84,0,0,1,2.9-1,3.73,3.73,0,0,1,1.2.2,4.18,4.18,0,0,1,1,.4l-.4,2.2c-.1.3-.2.4-.5.4a2.54,2.54,0,0,1-.7-.2,4.44,4.44,0,0,0-1.3-.2,3.49,3.49,0,0,0-2.5.9,5.62,5.62,0,0,0-1.7,2.6v10.6Z" style="fill:#fff"/><path d="M457.5,79.2a50,50,0,1,0,50,50A50,50,0,0,0,457.5,79.2Zm0,80a30,30,0,1,1,30-30A30,30,0,0,1,457.5,159.2Z" style="fill:#8f8f8f"/><path d="M352.5,79.2a50,50,0,1,0,50,50A50,50,0,0,0,352.5,79.2Zm0,80a30,30,0,1,1,30-30A30,30,0,0,1,352.5,159.2Z" style="fill:#8f8f8f"/><path d="M142.5,79.2a50,50,0,1,0,50,50A50,50,0,0,0,142.5,79.2Zm0,80a30,30,0,1,1,30-30A30,30,0,0,1,142.5,159.2Z" style="fill:#714b67"/><path d="M287.5,49.1a10,10,0,0,0-10,10v30a50,50,0,1,0,20,40.1h0V59.1A10,10,0,0,0,287.5,49.1Zm-40,110a30,30,0,1,1,30-30A30,30,0,0,1,247.5,159.1Z" style="fill:#8f8f8f"/></svg>